# This file uses meters as units for non-parametric coordinates.

mtllib moving_platforms2.mtl
g default
v -71.444689 111.541974 1004.470477
v -23.725152 111.889881 1003.644786
v -7.937515 111.098000 1043.314692
v -30.507389 112.078387 1079.307138
v -72.014290 112.384644 1078.449822
v -92.157985 112.754605 1047.697511
v -46.666490 111.273838 1048.899102
v -46.871844 3.025723 1044.910350
v -78.145729 70.646630 1052.590198
v -55.692496 60.951863 1071.692603
v -28.545763 52.142469 1061.031962
v -20.913101 67.625240 1039.339990
v -37.430346 61.132801 1019.790899
v -65.426993 57.694355 1025.192892
v -49.231212 22.546392 1053.376970
v -53.929855 22.692427 1046.072385
v -50.921175 18.542512 1038.639804
v -44.587676 15.624241 1039.035069
v -39.851013 18.930335 1043.411657
v -42.412081 19.353023 1050.620923
v -72.057057 89.521732 1006.668401
v -93.153402 93.977320 1038.540993
v -69.535309 92.268219 1078.224580
v -28.121456 91.004281 1072.561933
v -16.351770 82.358371 1036.729960
v -45.308907 81.171402 1004.354221
vt 0.625000 0.033494
vt 0.375000 0.033494
vt 0.250000 0.250000
vt 0.375000 0.466506
vt 0.625000 0.466506
vt 0.750000 0.250000
vt 0.250000 0.500000
vt 0.333333 0.500000
vt 0.416667 0.500000
vt 0.500000 0.500000
vt 0.583333 0.500000
vt 0.666667 0.500000
vt 0.750000 0.500000
vt 0.500000 0.250000
vt 0.500000 1.000000
vt 0.598525 0.704424
vt 0.545860 0.724838
vt 0.500000 0.738349
vt 0.457727 0.746364
vt 0.411794 0.735381
vt 0.623168 0.753664
vt 0.376832 0.753664
vt 0.512318 0.926090
vt 0.524821 0.925537
vt 0.529251 0.941498
vt 0.470749 0.941498
vt 0.481202 0.943605
vt 0.486870 0.921219
vt 0.500000 0.918326
vt 0.697443 0.605115
vt 0.302557 0.605115
vt 0.639148 0.582556
vt 0.568239 0.590567
vt 0.500000 0.596491
vt 0.432190 0.593142
vt 0.365666 0.596997
vn -0.001753 0.999918 0.012723
vn 0.011253 0.999937 -0.000241
vn 0.011562 0.999904 -0.007662
vn 0.004882 0.999985 0.002368
vn 0.004282 0.999578 -0.028723
vn 0.023478 0.999572 -0.017435
vn 0.032828 0.999398 -0.011251
vn -0.045930 -0.035704 -0.998306
vn -0.045930 -0.035704 -0.998306
vn -0.102697 -0.284663 -0.953111
vn -0.094028 -0.245892 -0.964726
vn 0.795733 -0.352823 -0.492264
vn 0.795733 -0.352823 -0.492264
vn 0.785388 -0.327356 -0.525361
vn 0.785436 -0.327468 -0.525219
vn 0.867257 -0.223940 0.444653
vn 0.867257 -0.223940 0.444653
vn 0.892195 -0.199926 0.404991
vn 0.907376 -0.183689 0.378058
vn 0.054077 -0.160396 0.985570
vn 0.054077 -0.160396 0.985570
vn 0.117306 -0.182162 0.976246
vn 0.144637 -0.191369 0.970803
vn -0.840946 -0.156989 0.517846
vn -0.840946 -0.156989 0.517845
vn -0.813774 -0.237391 0.530487
vn -0.804579 -0.260865 0.533482
vn -0.863864 0.117587 -0.489808
vn -0.863864 0.117587 -0.489808
vn -0.881877 -0.210329 -0.421965
vn -0.881680 -0.212281 -0.421398
vn -0.713197 -0.409948 0.568588
vn -0.714337 -0.408876 0.567929
vn -0.800440 -0.317311 0.508536
vn 0.216099 -0.383328 0.897976
vn 0.217332 -0.384020 0.897382
vn 0.193592 -0.370595 0.908395
vn 0.915241 -0.377795 0.140016
vn 0.915291 -0.377829 0.139597
vn 0.874280 -0.354711 0.331382
vn 0.766648 -0.348641 -0.539166
vn 0.767041 -0.347138 -0.539578
vn 0.756787 -0.383922 -0.529034
vn -0.128777 -0.367741 -0.920969
vn -0.128736 -0.369069 -0.920443
vn -0.127703 -0.400076 -0.907541
vn -0.890924 -0.407957 -0.199564
vn -0.892862 -0.403767 -0.199424
vn -0.926612 -0.320970 -0.195878
vn -0.737505 -0.379262 0.558790
vn -0.756807 -0.354481 0.549169
vn -0.834678 -0.474920 -0.278861
vn -0.843345 -0.466032 -0.267549
vn -0.150504 -0.488774 -0.859330
vn -0.149796 -0.484683 -0.861767
vn 0.757372 -0.293312 -0.583400
vn 0.757232 -0.292674 -0.583902
vn 0.944743 -0.196912 0.262079
vn 0.940957 -0.258896 0.218111
vn 0.206517 -0.279283 0.937738
vn 0.202002 -0.243583 0.948611
s 1
g pCone4
usemtl initialShadingGroup
f 2/2/1 1/1/2 7/14/3
f 3/3/4 2/2/1 7/14/3
f 4/4/5 3/3/4 7/14/3
f 5/5/6 4/4/5 7/14/3
f 6/6/7 5/5/6 7/14/3
f 1/1/2 6/6/7 7/14/3
s 2
f 1/7/8 2/8/9 26/36/10 21/31/11
s 3
f 2/8/12 3/9/13 25/35/14 26/36/15
s 4
f 3/9/16 4/10/17 24/34/18 25/35/19
s 5
f 4/10/20 5/11/21 23/33/22 24/34/23
s 6
f 5/11/24 6/12/25 22/32/26 23/33/27
s 7
f 6/12/28 1/13/29 21/30/30 22/32/31
s 6
f 15/23/32 16/24/33 8/15/34
s 5
f 20/29/35 15/23/36 8/15/37
s 4
f 19/28/38 20/29/39 8/15/40
s 3
f 18/27/41 19/28/42 8/15/43
s 2
f 17/26/44 18/27/45 8/15/46
s 7
f 16/24/47 17/25/48 8/15/49
s 6
f 10/17/50 9/16/51 16/24/33 15/23/32
s 7
f 9/16/52 14/21/53 17/25/48 16/24/47
s 2
f 14/22/54 13/20/55 18/27/45 17/26/44
s 3
f 13/20/56 12/19/57 19/28/42 18/27/41
s 4
f 12/19/58 11/18/59 20/29/39 19/28/38
s 5
f 11/18/60 10/17/61 15/23/36 20/29/35
s 7
f 22/32/31 21/30/30 14/21/53 9/16/52
s 6
f 23/33/27 22/32/26 9/16/51 10/17/50
s 5
f 24/34/23 23/33/22 10/17/61 11/18/60
s 4
f 25/35/19 24/34/18 11/18/59 12/19/58
s 3
f 26/36/15 25/35/14 12/19/57 13/20/56
s 2
f 21/31/11 26/36/10 13/20/55 14/22/54
g default
v -70.472216 104.369924 913.344066
v -24.443902 106.632717 918.399631
v -11.551837 107.970831 956.653975
v -34.227426 107.970831 992.657761
v -72.422321 105.908448 993.137394
v -95.318612 106.048462 956.055266
v -50.986207 107.177925 956.785770
v -51.070400 2.357623 953.403213
v -79.521290 70.645257 960.710778
v -59.094840 61.004878 978.887189
v -34.398556 52.244904 968.743325
v -27.454871 67.640818 948.102878
v -42.481156 61.184800 929.501435
v -67.950634 57.765644 934.641565
v -53.216795 23.845395 961.459412
v -57.491306 24.006149 954.508918
v -54.754211 19.438046 947.436634
v -48.992416 16.225696 947.812739
v -44.683317 19.864953 951.977170
v -47.013206 20.330233 958.836965
v -73.982223 89.414471 917.015055
v -93.174268 93.845064 947.342613
v -71.688106 92.145551 983.807136
v -34.012550 90.888703 979.714377
v -14.176211 91.599250 945.619370
v -40.519478 90.418940 914.813056
vt 0.625000 0.033494
vt 0.375000 0.033494
vt 0.250000 0.250000
vt 0.375000 0.466506
vt 0.625000 0.466506
vt 0.750000 0.250000
vt 0.250000 0.500000
vt 0.333333 0.500000
vt 0.416667 0.500000
vt 0.500000 0.500000
vt 0.583333 0.500000
vt 0.666667 0.500000
vt 0.750000 0.500000
vt 0.500000 0.250000
vt 0.500000 1.000000
vt 0.598525 0.704424
vt 0.545860 0.724838
vt 0.500000 0.738349
vt 0.457727 0.746364
vt 0.411794 0.735381
vt 0.623168 0.753664
vt 0.376832 0.753664
vt 0.512318 0.926090
vt 0.524821 0.925537
vt 0.529251 0.941498
vt 0.470749 0.941498
vt 0.481202 0.943605
vt 0.486870 0.921219
vt 0.500000 0.918326
vt 0.697443 0.605115
vt 0.302557 0.605115
vt 0.639148 0.582556
vt 0.568239 0.590567
vt 0.500000 0.596491
vt 0.432190 0.593142
vt 0.365666 0.596997
vn -0.033855 0.998720 -0.037594
vn -0.034398 0.998202 -0.049093
vn -0.031509 0.999255 -0.022278
vn -0.020170 0.999564 -0.021555
vn -0.037259 0.999295 -0.004681
vn -0.037689 0.999209 0.012670
vn -0.025118 0.999465 -0.020945
vn 0.036926 -0.025909 -0.998982
vn 0.036926 -0.025909 -0.998982
vn -0.017989 -0.251365 -0.967725
vn -0.037733 -0.330015 -0.943221
vn 0.840776 -0.272630 -0.467727
vn 0.840776 -0.272630 -0.467727
vn 0.798481 -0.324214 -0.507260
vn 0.771339 -0.353670 -0.529107
vn 0.786965 -0.395882 0.473248
vn 0.786965 -0.395882 0.473248
vn 0.838814 -0.333615 0.430224
vn 0.855588 -0.310743 0.414015
vn 0.055027 -0.583433 0.810295
vn 0.055027 -0.583433 0.810295
vn 0.120941 -0.408851 0.904552
vn 0.142898 -0.343127 0.928356
vn -0.785633 -0.409409 0.463858
vn -0.785633 -0.409409 0.463858
vn -0.788000 -0.354484 0.503386
vn -0.788038 -0.348634 0.507395
vn -0.842899 0.138885 -0.519839
vn -0.842899 0.138885 -0.519839
vn -0.881069 -0.206568 -0.425496
vn -0.880574 -0.214658 -0.422506
vn -0.734215 -0.390915 0.555080
vn -0.735476 -0.389419 0.554461
vn -0.823027 -0.269642 0.499920
vn 0.219926 -0.372026 0.901792
vn 0.220847 -0.375080 0.900301
vn 0.205720 -0.325466 0.922904
vn 0.926032 -0.352474 0.135007
vn 0.926067 -0.352616 0.134394
vn 0.896670 -0.300658 0.324942
vn 0.786785 -0.326868 -0.523571
vn 0.786872 -0.326751 -0.523514
vn 0.785075 -0.329153 -0.524704
vn -0.138536 -0.356155 -0.924100
vn -0.138425 -0.355992 -0.924180
vn -0.136249 -0.352767 -0.925739
vn -0.904563 -0.383924 -0.185389
vn -0.907320 -0.377163 -0.185791
vn -0.943732 -0.270167 -0.190735
vn -0.754612 -0.354305 0.552294
vn -0.772723 -0.322120 0.546935
vn -0.852872 -0.446634 -0.270422
vn -0.860821 -0.438539 -0.258209
vn -0.097121 -0.431645 -0.896800
vn -0.094464 -0.436308 -0.894825
vn 0.755949 -0.365364 -0.543186
vn 0.751600 -0.370509 -0.545730
vn 0.908681 -0.269400 0.318939
vn 0.918245 -0.295286 0.263881
vn 0.203348 -0.261890 0.943432
vn 0.196757 -0.223513 0.954635
s 1
g pCone3
usemtl initialShadingGroup
f 28/38/62 27/37/63 33/50/64
f 29/39/65 28/38/62 33/50/64
f 30/40/66 29/39/65 33/50/64
f 31/41/67 30/40/66 33/50/64
f 32/42/68 31/41/67 33/50/64
f 27/37/63 32/42/68 33/50/64
s 2
f 27/43/69 28/44/70 52/72/71 47/67/72
s 3
f 28/44/73 29/45/74 51/71/75 52/72/76
s 4
f 29/45/77 30/46/78 50/70/79 51/71/80
s 5
f 30/46/81 31/47/82 49/69/83 50/70/84
s 6
f 31/47/85 32/48/86 48/68/87 49/69/88
s 7
f 32/48/89 27/49/90 47/66/91 48/68/92
s 6
f 41/59/93 42/60/94 34/51/95
s 5
f 46/65/96 41/59/97 34/51/98
s 4
f 45/64/99 46/65/100 34/51/101
s 3
f 44/63/102 45/64/103 34/51/104
s 2
f 43/62/105 44/63/106 34/51/107
s 7
f 42/60/108 43/61/109 34/51/110
s 6
f 36/53/111 35/52/112 42/60/94 41/59/93
s 7
f 35/52/113 40/57/114 43/61/109 42/60/108
s 2
f 40/58/115 39/56/116 44/63/106 43/62/105
s 3
f 39/56/117 38/55/118 45/64/103 44/63/102
s 4
f 38/55/119 37/54/120 46/65/100 45/64/99
s 5
f 37/54/121 36/53/122 41/59/97 46/65/96
s 7
f 48/68/92 47/66/91 40/57/114 35/52/113
s 6
f 49/69/88 48/68/87 35/52/112 36/53/111
s 5
f 50/70/84 49/69/83 36/53/122 37/54/121
s 4
f 51/71/80 50/70/79 37/54/120 38/55/119
s 3
f 52/72/76 51/71/75 38/55/118 39/56/117
s 2
f 47/67/72 52/72/71 39/56/116 40/58/115
